<svg width="25" height="19" viewBox="0 0 25 19" fill="none" xmlns="http://www.w3.org/2000/svg">
<path d="M21.7272 3.19722C21.6911 3.14055 21.65 3.09611 21.5961 3.05555C21.3989 2.90721 18.4048 0.894897 16.1152 0.894897C15.9718 0.894897 15.6568 1.50604 15.5507 1.99884C14.4429 1.99995 11.1082 1.99717 9.99867 2.00217C9.86755 1.53659 9.52975 0.896564 9.43863 0.896564C7.14848 0.896564 4.16773 2.89999 3.95994 3.05611C3.90605 3.09666 3.86549 3.14111 3.82882 3.19778C3.43546 3.81281 1.02364 7.85799 0.555273 15.2161C0.550272 15.295 0.577496 15.3767 0.630277 15.4356C3.18211 18.2929 6.84346 18.6307 7.62463 18.6701C7.71741 18.6746 7.81075 18.6374 7.86186 18.5596L8.47246 17.6345L6.66901 16.7789V15.885C10.1853 17.4501 15.2007 17.6095 18.8881 15.8945L18.9031 16.7767L17.1225 17.6934L17.6936 18.5596C17.7447 18.6374 17.8381 18.6751 17.9309 18.6701C18.7126 18.6301 22.3734 18.2929 24.9246 15.435C24.9774 15.3761 25.0047 15.2944 24.9997 15.2155C24.5324 7.85743 22.1206 3.81225 21.7272 3.19722Z" fill="url(#paint0_radial_21_123)"/>
<path opacity="0.05" d="M16.3908 13.6698C17.7716 13.6698 18.891 12.4261 18.891 10.8919C18.891 9.35772 17.7716 8.11401 16.3908 8.11401C15.01 8.11401 13.8906 9.35772 13.8906 10.8919C13.8906 12.4261 15.01 13.6698 16.3908 13.6698Z" fill="black"/>
<path opacity="0.05" d="M16.3933 13.3922C17.6206 13.3922 18.6156 12.2729 18.6156 10.8921C18.6156 9.51131 17.6206 8.39197 16.3933 8.39197C15.1659 8.39197 14.1709 9.51131 14.1709 10.8921C14.1709 12.2729 15.1659 13.3922 16.3933 13.3922Z" fill="black"/>
<path d="M16.3899 13.1142C17.4638 13.1142 18.3345 12.1192 18.3345 10.8919C18.3345 9.66452 17.4638 8.66956 16.3899 8.66956C15.3159 8.66956 14.4453 9.66452 14.4453 10.8919C14.4453 12.1192 15.3159 13.1142 16.3899 13.1142Z" fill="white"/>
<path opacity="0.05" d="M9.16618 13.6698C10.547 13.6698 11.6663 12.4261 11.6663 10.8919C11.6663 9.35772 10.547 8.11401 9.16618 8.11401C7.78538 8.11401 6.66602 9.35772 6.66602 10.8919C6.66602 12.4261 7.78538 13.6698 9.16618 13.6698Z" fill="black"/>
<path opacity="0.05" d="M9.16768 13.3918C10.3951 13.3918 11.3901 12.2725 11.3901 10.8917C11.3901 9.51094 10.3951 8.3916 9.16768 8.3916C7.9403 8.3916 6.94531 9.51094 6.94531 10.8917C6.94531 12.2725 7.9403 13.3918 9.16768 13.3918Z" fill="black"/>
<path d="M9.16772 13.1144C10.2417 13.1144 11.1123 12.1195 11.1123 10.8921C11.1123 9.66477 10.2417 8.6698 9.16772 8.6698C8.09376 8.6698 7.22314 9.66477 7.22314 10.8921C7.22314 12.1195 8.09376 13.1144 9.16772 13.1144Z" fill="white"/>
<defs>
<radialGradient id="paint0_radial_21_123" cx="0" cy="0" r="1" gradientUnits="userSpaceOnUse" gradientTransform="translate(12.7783 2.00217) scale(17.9195 17.9191)">
<stop stop-color="#8C9EFF"/>
<stop offset="0.368" stop-color="#889AF8"/>
<stop offset="0.889" stop-color="#7E8FE6"/>
<stop offset="1" stop-color="#7B8CE1"/>
</radialGradient>
</defs>
</svg>
