<svg width="25" height="19" viewBox="0 0 25 19" fill="none" xmlns="http://www.w3.org/2000/svg">
<path d="M1.94457 18.5031H22.5015C23.5754 18.5031 24.4461 17.6325 24.4461 16.5586V2.11348C24.4461 1.03954 23.5754 0.168945 22.5015 0.168945H1.94457C0.870613 0.168945 0 1.03954 0 2.11348V16.5586C0 17.6325 0.870613 18.5031 1.94457 18.5031Z" fill="#E0E0E0"/>
<path d="M13.3342 18.5031H22.5015C23.5754 18.5031 24.4461 17.6325 24.4461 16.5586V2.11348C24.4461 1.03954 23.5754 0.168945 22.5015 0.168945H1.94457C0.870613 0.168945 0 1.03954 0 2.11348L13.3342 18.5031Z" fill="#D9D9D9"/>
<path d="M2.63672 18.503H22.5019C23.5759 18.503 24.4465 17.6324 24.4465 16.5584V2.39111L2.63672 18.503Z" fill="#EEEEEE"/>
<path d="M13.194 18.503H22.503C23.5769 18.503 24.4476 17.6324 24.4476 16.5584V2.39111L9.31934 13.5672L13.194 18.503Z" fill="#E0E0E0"/>
<path d="M22.502 1.27986H1.94506C0.871101 1.27986 0.000488281 1.0393 0.000488281 2.11324V16.5583C0.000488281 17.6323 0.871101 18.5029 1.94506 18.5029H2.77845V2.66882H21.6686V18.5029H22.502C23.5759 18.5029 24.4465 17.6323 24.4465 16.5583V2.11324C24.4465 1.0393 23.5759 1.27986 22.502 1.27986Z" fill="#CA3737"/>
<path d="M22.5015 0.168945H12.223H1.94457C0.870613 0.168945 0 1.02232 0 2.11348C0 2.78351 0.843389 3.36798 0.843389 3.36798L12.223 11.4228L23.6027 3.36853C23.6027 3.36853 24.4461 2.78351 24.4461 2.11403C24.4461 1.02232 23.5754 0.168945 22.5015 0.168945Z" fill="#F5F5F5"/>
<path d="M22.9164 0.214478L12.2235 7.66926L1.53059 0.214478C0.656087 0.401708 0.000488281 1.1673 0.000488281 2.11345C0.000488281 2.78348 0.843877 3.36795 0.843877 3.36795L12.2235 11.4228L23.6032 3.36851C23.6032 3.36851 24.4465 2.78348 24.4465 2.11401C24.4465 1.1673 23.7909 0.401708 22.9164 0.214478Z" fill="#E84F4B"/>
</svg>
