<svg width="23" height="23" viewBox="0 0 23 23" fill="none" xmlns="http://www.w3.org/2000/svg">
<path d="M11.1118 0C8.1648 0 5.33846 1.17068 3.25458 3.25452C1.17071 5.33835 0 8.16463 0 11.1116C0 14.0586 1.17071 16.8849 3.25458 18.9687C5.33846 21.0525 8.1648 22.2232 11.1118 22.2232C14.0589 22.2232 16.8852 21.0525 18.9691 18.9687C21.053 16.8849 22.2237 14.0586 22.2237 11.1116C22.2237 8.16463 21.053 5.33835 18.9691 3.25452C16.8852 1.17068 14.0589 0 11.1118 0Z" fill="#29B6F6"/>
<path d="M16.6414 6.11137L14.5601 16.7374C14.5601 16.7374 14.4707 17.223 13.8684 17.223C13.5484 17.223 13.3834 17.0707 13.3834 17.0707L8.87533 13.33L6.66963 12.2183L3.83888 11.4655C3.83888 11.4655 3.33496 11.3199 3.33496 10.9032C3.33496 10.556 3.85333 10.3904 3.85333 10.3904L15.6963 5.68579C15.6958 5.68524 16.058 5.55523 16.3219 5.55579C16.4842 5.55579 16.6692 5.62524 16.6692 5.83358C16.6692 5.97247 16.6414 6.11137 16.6414 6.11137Z" fill="white"/>
<path d="M10.5559 14.7255L8.65242 16.6C8.65242 16.6 8.56964 16.6639 8.45908 16.6667C8.42074 16.6678 8.37963 16.6617 8.3374 16.6428L8.87299 13.3287L10.5559 14.7255Z" fill="#B0BEC5"/>
<path d="M14.389 7.88691C14.2951 7.76468 14.1218 7.74246 13.9996 7.83524L6.66797 12.2227C6.66797 12.2227 7.83805 15.4961 8.01639 16.0628C8.19529 16.6301 8.33863 16.6434 8.33863 16.6434L8.87423 13.3294L14.3368 8.27582C14.459 8.18304 14.4818 8.00914 14.389 7.88691Z" fill="#CFD8DC"/>
</svg>
