<svg width="34" height="38" viewBox="0 0 34 38" fill="none" xmlns="http://www.w3.org/2000/svg">
<path d="M0.00787124 2.176L2.63487 31.946C2.74387 33.183 3.60487 34.226 4.79887 34.567L15.4419 37.608C16.3399 37.865 17.2909 37.865 18.1889 37.608L28.8319 34.567C30.0259 34.226 30.8869 33.184 30.9959 31.946L33.6229 2.176C33.7269 1.006 32.8059 0 31.6319 0H1.99987C0.825871 0 -0.0951288 1.006 0.00787124 2.176Z" fill="url(#paint0_linear_21_119)"/>
<path d="M16.8159 3V34.9L26.6919 32.078C27.4889 31.85 28.0629 31.154 28.1349 30.329L30.4209 4.087C30.4719 3.502 30.0119 3 29.4249 3H16.8159Z" fill="#35C1F1"/>
<path d="M25.9159 8H16.8159V12H21.7159L21.4159 16H16.8159V20H21.2159L20.9159 24.5L16.8159 25.9V30.1L24.7159 27.5L25.4159 16L25.9159 8Z" fill="white"/>
<path d="M16.8157 8V12H7.91572L7.61572 8H16.8157ZM12.2157 16L12.4157 20H16.8157V16H12.2157ZM12.6157 22H8.61572L8.91572 27.5L16.8157 30.1V25.9L12.7157 24.5L12.6157 22Z" fill="#D6E0E9"/>
<path opacity="0.05" d="M25.9161 8L25.4161 16L24.7161 27.5L16.8161 30.1L8.91609 27.5L8.61609 22H12.6161L12.7161 24.5L16.8161 25.9L20.9161 24.5L21.2161 20H16.8161H12.4161L12.2161 16H16.8161H21.4161L21.7161 12H16.8161H7.91609L7.61609 8H16.8161H25.9161ZM26.9801 7H25.9161H16.8161H7.61609H6.53809L6.61909 8.075L6.91909 12.075L6.98809 13H7.91609H16.8161H20.6381L20.4881 15H16.8161H12.2161H11.1651L11.2171 16.05L11.4171 20.05L11.4651 21H8.61609H7.56009L7.61809 22.054L7.91809 27.554L7.95509 28.236L8.60409 28.45L16.5041 31.05L16.8161 31.153L17.1291 31.05L25.0291 28.45L25.6731 28.238L25.7141 27.561L26.4141 16.061L26.9141 8.063L26.9801 7ZM13.5771 21H16.8161H20.1471L19.9621 23.769L16.8161 24.843L13.6881 23.775L13.6151 21.96L13.5771 21Z" fill="black"/>
<path opacity="0.07" d="M25.9161 8L25.4161 16L24.7161 27.5L16.8161 30.1L8.91615 27.5L8.61615 22H12.6161L12.7161 24.5L16.8161 25.9L20.9161 24.5L21.2161 20H16.8161H12.4161L12.2161 16H16.8161H21.4161L21.7161 12H16.8161H7.91615L7.61615 8H16.8161H25.9161ZM26.4481 7.5H25.9161H16.8161H7.61615H7.07715L7.11715 8.037L7.41715 12.037L7.45215 12.5H7.91615H16.8161H21.1771L20.9521 15.5H16.8161H12.2161H11.6901L11.7161 16.025L11.9161 20.025L11.9401 20.5H12.4161H16.8161H20.6821L20.4401 24.134L16.8161 25.372L13.2021 24.138L13.1161 21.98L13.0961 21.5H12.6161H8.61615H8.08815L8.11715 22.027L8.41715 27.527L8.43615 27.868L8.76015 27.975L16.6601 30.575L16.8161 30.626L16.9721 30.575L24.8721 27.975L25.1941 27.869L25.2151 27.53L25.9151 16.03L26.4151 8.031L26.4481 7.5Z" fill="black"/>
<defs>
<linearGradient id="paint0_linear_21_119" x1="9.14587" y1="-7.748" x2="25.1089" y2="36.109" gradientUnits="userSpaceOnUse">
<stop stop-color="#2AA4F4"/>
<stop offset="1" stop-color="#007AD9"/>
</linearGradient>
</defs>
</svg>
