<svg width="34" height="38" viewBox="0 0 34 38" fill="none" xmlns="http://www.w3.org/2000/svg">
<path d="M0.00787124 2.176L2.63487 31.946C2.74387 33.183 3.60487 34.226 4.79887 34.567L15.4419 37.608C16.3399 37.865 17.2909 37.865 18.1889 37.608L28.8319 34.567C30.0259 34.226 30.8869 33.184 30.9959 31.946L33.6229 2.176C33.7269 1.006 32.8059 0 31.6319 0H1.99987C0.825871 0 -0.0951288 1.006 0.00787124 2.176Z" fill="url(#paint0_linear_21_120)"/>
<path d="M16.8159 3V34.9L26.6919 32.078C27.4889 31.85 28.0629 31.154 28.1349 30.329L30.4209 4.087C30.4719 3.502 30.0119 3 29.4249 3H16.8159Z" fill="#F09601"/>
<path d="M16.8159 20V16H25.4159L24.7159 27.5L16.8159 30.1V25.9L20.9159 24.5L21.2159 20H16.8159ZM25.7159 12L26.0159 8H16.8159V12H25.7159Z" fill="white"/>
<path d="M16.8158 25.9V30.1L8.91582 27.5L8.51582 22H12.5158L12.7158 24.5L16.8158 25.9ZM11.9158 12H16.8158V8H7.71582L8.41582 20H16.8158V16H12.2158L11.9158 12Z" fill="#D6E0E9"/>
<path opacity="0.05" d="M26.0158 8L25.7158 12H16.8158H11.9158L12.2158 16H16.8158H25.4158L24.7158 27.5L16.8158 30.1L8.91576 27.5L8.51576 22H12.5158L12.7158 24.5L16.8158 25.9L20.9158 24.5L21.2158 20H16.8158H8.41576L7.71576 8H16.8158H26.0158ZM27.0938 7H26.0158H16.8158H7.71576H6.65576L6.71776 8.058L7.41776 20.058L7.47276 21H7.44076L7.51876 22.073L7.91876 27.573L7.96776 28.241L8.60376 28.45L16.5038 31.05L16.8158 31.153L17.1288 31.05L25.0288 28.45L25.6728 28.238L25.7138 27.561L26.4138 16.061L26.4788 15H25.4158H16.8158H13.1438L12.9938 13H16.8158H25.7158H26.6438L26.7128 12.075L27.0128 8.075L27.0938 7ZM13.4388 21H16.8158H20.1468L19.9618 23.769L16.8158 24.843L13.6598 23.766L13.5118 21.92L13.4388 21Z" fill="black"/>
<path opacity="0.07" d="M26.016 8L25.716 12H16.816H11.916L12.216 16H16.816H25.416L24.716 27.5L16.816 30.1L8.91604 27.5L8.51604 22H12.516L12.716 24.5L16.816 25.9L20.916 24.5L21.216 20H16.816H8.41604L7.71603 8H16.816H26.016ZM26.555 7.5H26.016H16.816H7.71603H7.18604L7.21704 8.029L7.91704 20.029L7.94404 20.5H8.41604H16.816H20.682L20.44 24.134L16.816 25.372L13.188 24.133L13.014 21.96L12.977 21.5H12.516H8.51604H7.97803L8.01704 22.036L8.41704 27.536L8.44104 27.87L8.75904 27.975L16.659 30.575L16.816 30.626L16.972 30.575L24.872 27.975L25.194 27.869L25.215 27.53L25.915 16.03L25.947 15.5H25.416H16.816H12.68L12.455 12.5H16.816H25.716H26.18L26.215 12.037L26.515 8.037L26.555 7.5Z" fill="black"/>
<defs>
<linearGradient id="paint0_linear_21_120" x1="11.0239" y1="-2.587" x2="26.9749" y2="41.236" gradientUnits="userSpaceOnUse">
<stop stop-color="#F09701"/>
<stop offset="1" stop-color="#E36001"/>
</linearGradient>
</defs>
</svg>
