<svg width="40" height="40" viewBox="0 0 40 40" fill="none" xmlns="http://www.w3.org/2000/svg">
<path fill-rule="evenodd" clip-rule="evenodd" d="M19.958 0C30.981 0 39.916 8.935 39.916 19.958C39.916 30.98 30.981 39.916 19.958 39.916C8.936 39.916 0 30.981 0 19.958C0.001 8.935 8.936 0 19.958 0Z" fill="#F06292"/>
<path fill-rule="evenodd" clip-rule="evenodd" d="M32.4769 8.54206C31.5729 4.99706 25.6959 3.83206 20.1339 5.80806C16.8239 6.98406 13.2399 8.83006 10.6629 11.2401C7.59885 14.1061 7.11085 16.6001 7.31185 17.6421C8.02185 21.3191 13.0609 23.7231 15.1319 25.5071V25.5181C14.5209 25.8191 10.0509 28.0811 9.00485 30.3941C7.90085 32.8341 9.18085 34.5851 10.0279 34.8211C12.6529 35.5511 15.3459 34.2381 16.7939 32.0791C18.1909 29.9951 18.0749 27.3051 17.4679 25.9661C18.3049 25.7451 19.2819 25.6461 20.5219 25.7911C24.0229 26.2001 24.7099 28.3861 24.5779 29.3011C24.4469 30.2161 23.7119 30.7191 23.4669 30.8711C23.2209 31.0231 23.1469 31.0761 23.1669 31.1881C23.1969 31.3521 23.3099 31.3461 23.5199 31.3111C23.8079 31.2621 25.3579 30.5671 25.4249 28.8781C25.5089 26.7341 23.4549 24.3361 19.8169 24.3981C18.3189 24.4241 17.3769 24.5661 16.6959 24.8201C16.6459 24.7631 16.5939 24.7061 16.5419 24.6491C14.2929 22.2491 10.1349 20.5521 10.3109 17.3261C10.3749 16.1531 10.7829 13.0651 18.2999 9.31906C24.4579 6.25006 29.3879 7.09506 30.2399 8.96606C31.4569 11.6401 27.6049 16.6091 21.2099 17.3261C18.7729 17.5991 17.4899 16.6551 17.1709 16.3031C16.8349 15.9331 16.7849 15.9161 16.6599 15.9861C16.4559 16.0991 16.5849 16.4261 16.6599 16.6211C16.8509 17.1181 17.6349 17.9991 18.9699 18.4381C20.1449 18.8241 23.0059 19.0351 26.4659 17.6971C30.3399 16.1971 33.3659 12.0271 32.4769 8.54206ZM15.9919 26.6061C16.2819 27.6801 16.2499 28.6821 15.9509 29.5891C15.9179 29.6901 15.8809 29.7891 15.8409 29.8881C15.8009 29.9861 15.7579 30.0841 15.7119 30.1801C15.4809 30.6601 15.1699 31.1091 14.7899 31.5241C13.6299 32.7891 12.0099 33.2671 11.3159 32.8641C10.5659 32.4291 10.9419 30.6461 12.2859 29.2241C13.7319 27.6951 15.8129 26.7121 15.8129 26.7121L15.8099 26.7061C15.8699 26.6731 15.9309 26.6401 15.9919 26.6061Z" fill="white"/>
</svg>
