<svg width="43" height="42" viewBox="0 0 43 42" fill="none" xmlns="http://www.w3.org/2000/svg">
<rect x="1" y="2" width="40" height="40" rx="20" fill="white"/>
<path d="M21.3333 0C33.1156 0 42.6667 9.55111 42.6667 21.3333C42.6667 30.8053 36.4907 38.8311 27.9476 41.616C27.9502 41.608 27.9538 41.5964 27.9538 41.5964C27.9538 41.5964 26.5138 40.9218 26.544 39.7173C26.5778 38.392 26.544 35.2987 26.544 34.1636C26.544 32.2142 25.3102 30.8329 25.3102 30.8329C25.3102 30.8329 34.9849 30.9413 34.9849 20.6187C34.9849 16.6356 32.9031 14.5636 32.9031 14.5636C32.9031 14.5636 33.9964 10.3111 32.5244 8.50844C30.8747 8.33067 27.92 10.0853 26.6578 10.9058C26.6578 10.9058 24.6578 10.0862 21.3324 10.0862C18.0062 10.0862 16.0071 10.9058 16.0071 10.9058C14.7458 10.0862 11.7902 8.33067 10.1404 8.50844C8.66845 10.312 9.76178 14.5636 9.76178 14.5636C9.76178 14.5636 7.68 16.6364 7.68 20.6187C7.68 30.9413 17.3547 30.8329 17.3547 30.8329C17.3547 30.8329 16.3796 31.9342 16.1671 33.5538C15.4916 33.7831 14.4987 34.0658 13.696 34.0658C11.5964 34.0658 9.99911 32.0249 9.41422 31.0809C8.83733 30.1493 7.65422 29.368 6.55111 29.368C5.82489 29.368 5.47022 29.7316 5.47022 30.1467C5.47022 30.5618 6.48889 30.8516 7.16089 31.6213C8.57778 33.2444 8.552 36.8951 13.6009 36.8951C14.1493 36.8951 15.2684 36.76 16.1102 36.6471C16.1049 37.7964 16.104 39.0089 16.1218 39.7173C16.152 40.9218 14.712 41.5964 14.712 41.5964C14.712 41.5964 14.7156 41.608 14.7182 41.616C6.176 38.8311 0 30.8053 0 21.3333C0 9.55111 9.55111 0 21.3333 0Z" fill="black"/>
</svg>
